<svg id="Capa_1" enable-background="new 0 0 512 512" height="512" viewBox="0 0 512 512" width="512" xmlns="http://www.w3.org/2000/svg"><g><path d="m277.148 512h-42.297c-3.414 0-6.181-2.767-6.181-6.181v-142.502c0-3.414 2.767-6.181 6.181-6.181h42.297c3.414 0 6.181 2.767 6.181 6.181v142.502c0 3.414-2.767 6.181-6.181 6.181z" fill="#9c9c9c"/><path d="m277.148 357.136h-42.297c-3.414 0-6.181 2.767-6.181 6.181v112.266h54.659v-112.266c0-3.414-2.767-6.181-6.181-6.181z" fill="#838383"/><path d="m310.659 446.381h-109.318c-25.156 0-45.549-20.393-45.549-45.549v-355.283c0-25.156 20.393-45.549 45.549-45.549h109.318c25.156 0 45.549 20.393 45.549 45.549v355.283c0 25.156-20.393 45.549-45.549 45.549z" fill="#5a5a5a"/><circle cx="256" cy="87.592" fill="#eb5569" r="52.381"/><circle cx="256" cy="224.006" fill="#fec165" r="52.381"/><circle cx="256" cy="358.789" fill="#0ab69f" r="52.381"/><path d="m256 35.21c-5.604 0-10.999.889-16.061 2.519 21.07 6.782 36.32 26.537 36.32 49.862s-15.25 43.08-36.32 49.863c5.062 1.63 10.457 2.519 16.061 2.519 28.929 0 52.381-23.452 52.381-52.382 0-28.929-23.452-52.381-52.381-52.381z" fill="#e53950"/><path d="m256 171.625c-5.604 0-10.999.889-16.061 2.519 21.07 6.782 36.32 26.537 36.32 49.862s-15.25 43.08-36.32 49.863c5.062 1.63 10.457 2.519 16.061 2.519 28.929 0 52.381-23.452 52.381-52.382 0-28.929-23.452-52.381-52.381-52.381z" fill="#fdb441"/><path d="m256 306.408c-5.604 0-10.999.889-16.061 2.519 21.07 6.782 36.32 26.537 36.32 49.862s-15.25 43.081-36.32 49.863c5.062 1.63 10.457 2.519 16.061 2.519 28.929 0 52.381-23.452 52.381-52.382 0-28.929-23.452-52.381-52.381-52.381z" fill="#01998d"/><circle cx="256" cy="87.592" fill="#eb5569" r="52.381"/><circle cx="256" cy="224.006" fill="#fec165" r="52.381"/><circle cx="256" cy="358.789" fill="#0ab69f" r="52.381"/><path d="m256 35.21c-5.069 0-9.965.734-14.601 2.078 21.822 6.323 37.78 26.443 37.78 50.303s-15.959 43.98-37.78 50.304c4.636 1.344 9.532 2.078 14.601 2.078 28.929 0 52.381-23.452 52.381-52.382 0-28.929-23.452-52.381-52.381-52.381z" fill="#e53950"/><path d="m256 171.625c-5.069 0-9.965.734-14.601 2.078 21.822 6.324 37.78 26.444 37.78 50.304s-15.959 43.98-37.78 50.304c4.636 1.344 9.532 2.078 14.601 2.078 28.929 0 52.381-23.452 52.381-52.382s-23.452-52.382-52.381-52.382z" fill="#fdb441"/><path d="m256 306.408c-5.069 0-9.965.734-14.601 2.078 21.822 6.324 37.78 26.444 37.78 50.304s-15.959 43.98-37.78 50.304c4.636 1.344 9.532 2.078 14.601 2.078 28.929 0 52.381-23.452 52.381-52.382s-23.452-52.382-52.381-52.382z" fill="#01998d"/><path d="m310.659 0h-35.042c25.156 0 45.549 20.393 45.549 45.549v355.282c0 25.156-20.393 45.549-45.549 45.549h-5.835c-.002 0-.003 0-.005 0h40.883c25.156 0 45.549-20.393 45.549-45.549v-355.282c-.001-25.156-20.394-45.549-45.55-45.549z" fill="#444"/></g></svg>